<?xml version="1.0" standalone="no"?>
<!DOCTYPE svg PUBLIC "-//W3C//DTD SVG 20010904//EN"
 "http://www.w3.org/TR/2001/REC-SVG-20010904/DTD/svg10.dtd">
<svg version="1.0" xmlns="http://www.w3.org/2000/svg"
 width="50.000000pt" height="50.000000pt" viewBox="0 0 50.000000 50.000000"
 preserveAspectRatio="xMidYMid meet">

<g transform="translate(0.000000,50.000000) scale(0.100000,-0.100000)"
fill="#000000" stroke="none">
<path d="M280 422 c0 -5 25 -8 55 -8 30 0 55 3 55 8 0 4 -25 8 -55 8 -30 0
-55 -4 -55 -8z"/>
<path d="M60 390 c0 -11 6 -20 13 -20 8 0 7 -3 -3 -10 -21 -13 -5 -24 18 -11
10 5 40 8 65 6 33 -3 47 -1 48 8 0 6 4 3 9 -8 7 -16 9 -13 9 18 1 45 -28 55
-30 10 l-1 -28 -11 28 c-13 31 -27 36 -27 8 0 -11 -5 -23 -11 -27 -9 -5 -10 1
-5 20 4 15 2 26 -4 26 -5 0 -10 -8 -10 -17 0 -15 -2 -14 -15 3 -13 17 -14 17
-15 2 0 -10 -5 -18 -11 -18 -6 0 -9 7 -5 15 3 8 1 15 -4 15 -6 0 -10 -9 -10
-20z"/>
<path d="M238 380 c2 -16 5 -30 7 -30 2 0 5 14 7 30 3 19 0 30 -7 30 -7 0 -10
-11 -7 -30z"/>
<path d="M292 358 c3 -31 5 -33 43 -33 38 0 40 2 43 33 3 32 3 32 -43 32 -46
0 -46 0 -43 -32z"/>
<path d="M301 306 c10 -9 79 -14 79 -5 0 5 -19 9 -42 9 -23 0 -39 -2 -37 -4z"/>
<path d="M100 280 c0 -11 6 -20 13 -20 8 0 7 -4 -3 -10 -12 -8 -11 -10 7 -10
12 0 24 6 26 13 4 9 8 8 16 -3 8 -12 11 -7 11 20 0 26 -3 31 -10 20 -9 -13
-11 -13 -20 0 -8 13 -10 12 -10 -3 0 -10 -5 -15 -10 -12 -6 4 -8 11 -5 16 4 5
1 9 -4 9 -6 0 -11 -9 -11 -20z"/>
<path d="M180 272 c0 -38 9 -46 32 -25 13 12 18 13 18 3 0 -9 5 -7 15 6 19 25
19 44 0 44 -8 0 -15 -5 -15 -12 0 -9 -3 -9 -12 0 -21 21 -38 14 -38 -16z m30
-2 c0 -11 -4 -20 -10 -20 -5 0 -10 9 -10 20 0 11 5 20 10 20 6 0 10 -9 10 -20z"/>
<path d="M292 246 c4 -37 -7 -46 -59 -46 -20 0 -22 -4 -17 -32 9 -54 11 -56
46 -61 l33 -4 -32 -1 c-28 -2 -33 -6 -33 -28 0 -14 4 -23 10 -19 6 3 10 13 10
21 0 21 17 17 23 -6 4 -17 14 -20 62 -20 48 0 56 3 51 16 -3 9 -6 22 -6 30 0
24 -38 16 -43 -8 l-4 -23 -2 23 c0 12 -8 22 -16 22 -8 0 -15 5 -15 10 0 6 9
10 20 10 16 0 20 7 20 35 0 26 -4 35 -17 36 -11 0 -13 3 -5 6 6 2 12 20 12 39
0 28 -4 34 -21 34 -18 0 -21 -5 -17 -34z"/>
<path d="M342 248 c2 -21 8 -33 18 -33 10 0 16 12 18 33 3 27 0 32 -18 32 -18
0 -21 -5 -18 -32z"/>
<path d="M357 193 c-14 -13 -7 -63 8 -63 10 0 15 11 15 35 0 33 -8 43 -23 28z"/>
</g>
</svg>
